<svg width="1600" height="920" viewBox="0 0 1600 920" fill="none" xmlns="http://www.w3.org/2000/svg">
  <rect width="1600" height="920" fill="#F8FAFC"/>
  <path d="M0 638H1600V920H0V638Z" fill="#E5EEF8"/>
  <path d="M0 638C275 568 555 532 843 532C1110 532 1362 568 1600 638V742C1359 665 1107 626 843 626C557 626 276 665 0 742V638Z" fill="#D9E7F5"/>
  <path d="M1075 330C1160 277 1280 257 1388 285C1477 308 1532 363 1535 431C1538 471 1517 506 1480 523C1456 534 1426 540 1391 540H973C918 540 884 504 892 458C899 409 961 371 1075 330Z" fill="#101827"/>
  <path d="M972 438C1072 375 1246 358 1396 391C1455 404 1498 429 1521 463C1469 486 1387 497 1273 496C1160 495 1055 474 972 438Z" fill="#F9FAFB"/>
  <path d="M1138 391C1205 365 1289 363 1383 384C1438 397 1479 417 1507 443C1463 466 1396 475 1306 473C1233 471 1175 446 1138 391Z" fill="#EF4444"/>
  <path d="M894 467H1534C1526 510 1476 540 1391 540H973C924 540 893 511 890 478C891 474 892 470 894 467Z" fill="#0D9488"/>
  <path d="M997 489H1504" stroke="#0F172A" stroke-width="20" stroke-linecap="round" stroke-dasharray="52 30"/>
  <path d="M1157 390L1276 500M1250 366L1354 495M1362 374L1450 480" stroke="#111827" stroke-width="11" stroke-linecap="round"/>
  <path d="M1110 365C1137 310 1184 259 1253 225C1300 202 1360 198 1413 215C1461 230 1500 262 1524 305L1545 344C1485 326 1413 321 1328 328C1238 336 1167 350 1110 365Z" fill="#172033"/>
  <path d="M1245 285C1303 260 1388 265 1466 300" stroke="#2DD4BF" stroke-width="18" stroke-linecap="round"/>
  <path d="M960 540H1468C1483 540 1495 552 1495 567C1495 582 1483 594 1468 594H960C945 594 933 582 933 567C933 552 945 540 960 540Z" fill="#111827"/>
  <path d="M0 742C268 678 547 645 836 645C1137 645 1392 679 1600 742" stroke="#BFD1E5" stroke-width="5"/>
  <path d="M112 790H1510" stroke="#FFFFFF" stroke-width="8" stroke-linecap="round" opacity=".72"/>
  <path d="M280 648V920" stroke="#FFFFFF" stroke-width="7" opacity=".55"/>
  <path d="M699 650L610 920" stroke="#FFFFFF" stroke-width="7" opacity=".55"/>
  <path d="M1036 650L1132 920" stroke="#FFFFFF" stroke-width="7" opacity=".55"/>
</svg>
