<svg width="900" height="640" viewBox="0 0 900 640" fill="none" xmlns="http://www.w3.org/2000/svg">
  <rect width="900" height="640" rx="42" fill="#EFF6FF"/>
  <path d="M119 494C249 535 680 535 786 474" stroke="#CBDDF3" stroke-width="24" stroke-linecap="round"/>
  <path d="M192 421C205 370 252 328 322 302C410 269 531 264 633 292C714 314 762 362 765 421C767 456 751 486 722 501C704 511 681 515 655 515H257C211 515 181 485 185 446C186 437 188 429 192 421Z" fill="#121826"/>
  <path d="M252 346C339 301 487 291 614 320C677 335 721 363 742 397C702 414 640 424 555 426C441 428 332 399 252 346Z" fill="#F8FAFC"/>
  <path d="M347 323C405 304 475 298 548 309C602 317 650 335 689 362C653 382 596 392 520 390C442 388 383 366 347 323Z" fill="#2563EB"/>
  <path d="M187 449H764C757 489 715 515 655 515H257C216 515 188 490 185 459C185 455 186 452 187 449Z" fill="#0F766E"/>
  <path d="M265 467H735" stroke="#111827" stroke-width="18" stroke-linecap="round" stroke-dasharray="42 28"/>
  <path d="M350 324L448 424M433 306L527 421M537 312L618 407" stroke="#0F172A" stroke-width="10" stroke-linecap="round"/>
  <path d="M300 313C320 257 362 203 427 162C467 137 522 131 574 145C623 158 661 190 682 233L704 280C643 261 574 257 498 265C421 274 354 290 300 313Z" fill="#172554"/>
  <path d="M415 219C463 190 550 188 626 230" stroke="#38BDF8" stroke-width="17" stroke-linecap="round"/>
  <path d="M251 516H698C711 516 722 527 722 540C722 553 711 564 698 564H251C238 564 227 553 227 540C227 527 238 516 251 516Z" fill="#0F172A"/>
  <path d="M301 539H682" stroke="#F8FAFC" stroke-width="7" stroke-linecap="round" stroke-dasharray="18 18"/>
</svg>
