<svg width="900" height="640" viewBox="0 0 900 640" fill="none" xmlns="http://www.w3.org/2000/svg">
  <path d="M110 488C231 530 687 535 793 470" stroke="#D8E1EC" stroke-width="24" stroke-linecap="round" opacity=".72"/>
  <path d="M205 385C265 322 363 278 470 265C564 254 650 273 703 323C741 358 761 405 753 445C746 481 713 503 665 502H255C206 502 174 470 182 432C185 416 193 400 205 385Z" fill="#101925"/>
  <path d="M223 395C284 345 365 315 467 306C555 299 635 316 688 357C708 372 723 392 731 414C702 430 655 440 591 444C475 450 334 434 223 395Z" fill="#F9FBFD"/>
  <path d="M303 361C357 332 426 318 506 321C568 323 625 338 668 363C636 381 583 390 508 390C425 390 354 380 303 361Z" fill="#E5484D"/>
  <path d="M219 441H752C748 478 713 503 665 502H255C218 502 190 484 183 456C193 447 205 442 219 441Z" fill="#09A6A3"/>
  <path d="M272 456H711" stroke="#102A43" stroke-width="18" stroke-linecap="round" stroke-dasharray="46 30"/>
  <path d="M340 342L451 415M432 319L520 414M532 323L602 401" stroke="#111827" stroke-width="9" stroke-linecap="round"/>
  <path d="M287 337C306 306 340 270 389 239C425 216 469 206 512 211C552 216 586 233 610 259L621 274C558 260 494 259 430 271C371 282 323 305 287 337Z" fill="#172033"/>
  <path d="M382 270C426 250 482 245 546 258" stroke="#09A6A3" stroke-width="16" stroke-linecap="round"/>
  <path d="M247 504H698C708 504 716 512 716 522C716 532 708 540 698 540H247C237 540 229 532 229 522C229 512 237 504 247 504Z" fill="#111827"/>
  <path d="M300 520H681" stroke="#F9FBFD" stroke-width="6" stroke-linecap="round" stroke-dasharray="18 18"/>
</svg>
