<svg width="900" height="640" viewBox="0 0 900 640" fill="none" xmlns="http://www.w3.org/2000/svg">
  <path d="M118 495C246 536 676 535 790 474" stroke="#D4E8D2" stroke-width="24" stroke-linecap="round" opacity=".72"/>
  <path d="M181 432C188 386 228 348 293 318C385 276 517 264 629 292C712 313 764 362 769 418C772 452 757 482 730 499C710 512 685 518 655 518H260C209 518 174 487 181 432Z" fill="#18211B"/>
  <path d="M231 359C315 307 465 292 600 315C669 327 719 354 746 393C702 412 635 421 543 420C421 418 311 397 231 359Z" fill="#FAFAF9"/>
  <path d="M324 335C375 310 448 300 540 309C608 316 660 335 700 365C658 384 594 394 509 392C428 390 366 371 324 335Z" fill="#16A34A"/>
  <path d="M183 451H769C765 493 721 518 655 518H260C213 518 182 489 181 456C181 454 182 452 183 451Z" fill="#6B7280"/>
  <path d="M267 471H739" stroke="#111827" stroke-width="18" stroke-linecap="round" stroke-dasharray="34 24"/>
  <path d="M328 332L443 426M420 311L520 423M534 314L624 409" stroke="#111827" stroke-width="10" stroke-linecap="round"/>
  <path d="M286 318C314 276 360 241 421 218C463 202 511 198 556 209C604 221 642 248 670 291C602 269 529 264 451 274C378 283 323 299 286 318Z" fill="#14532D"/>
  <path d="M393 257C445 236 526 239 600 267" stroke="#84CC16" stroke-width="16" stroke-linecap="round"/>
  <path d="M251 519H706C719 519 730 530 730 543C730 556 719 567 706 567H251C238 567 227 556 227 543C227 530 238 519 251 519Z" fill="#111827"/>
  <path d="M300 543H688" stroke="#F8FAFC" stroke-width="7" stroke-linecap="round" stroke-dasharray="18 18"/>
</svg>
